HIERARCHY
ROOT Hips
{
	OFFSET 0.000000 0.000000 0.000000
	CHANNELS 6 Xposition Yposition Zposition Zrotation Yrotation Xrotation
	JOINT LeftUpLeg
	{
		OFFSET 9.14595 0 0
		CHANNELS 3 Zrotation Yrotation Xrotation
		JOINT LeftLeg
		{
			OFFSET 0 -43.2472 0
			CHANNELS 3 Zrotation Yrotation Xrotation
			JOINT LeftFoot
			{
				OFFSET 0 -39.3015 0
				CHANNELS 3 Zrotation Yrotation Xrotation
				JOINT LeftToe
				{
					OFFSET 0 -6.36299 14.6734
					CHANNELS 3 Zrotation Yrotation Xrotation
					JOINT LToeEnd
					{
						OFFSET 0 0 4.22007
						CHANNELS 3 Zrotation Yrotation Xrotation
						End Site
						{
							OFFSET 0.0 0.0 0.0
						}
					}
				}
			}
		}
	}
	JOINT RightUpLeg
	{
		OFFSET -9.14595 0 0
		CHANNELS 3 Zrotation Yrotation Xrotation
		JOINT RightLeg
		{
			OFFSET 0 -43.2472 0
			CHANNELS 3 Zrotation Yrotation Xrotation
			JOINT RightFoot
			{
				OFFSET 0 -39.3015 0
				CHANNELS 3 Zrotation Yrotation Xrotation
				JOINT RightToe
				{
					OFFSET 0 -6.36299 14.6734
					CHANNELS 3 Zrotation Yrotation Xrotation
					JOINT RToeEnd
					{
						OFFSET 0 0 4.22007
						CHANNELS 3 Zrotation Yrotation Xrotation
						End Site
						{
							OFFSET 0.0 0.0 0.0
						}
					}
				}
			}
		}
	}
	JOINT Spine1
	{
		OFFSET 0 5.32198 0
		CHANNELS 3 Zrotation Yrotation Xrotation
		JOINT Spine2
		{
			OFFSET 0 9.88454 0
			CHANNELS 3 Zrotation Yrotation Xrotation
			JOINT Chest
			{
				OFFSET 0 10.4705 0
				CHANNELS 3 Zrotation Yrotation Xrotation
				JOINT Neck
				{
					OFFSET 0 20.2251 0
					CHANNELS 3 Zrotation Yrotation Xrotation
					JOINT Head
					{
						OFFSET 0 14.0184 1.95005
						CHANNELS 3 Zrotation Yrotation Xrotation
						JOINT HeadEnd
						{
							OFFSET 0 13.1925 0
							CHANNELS 3 Zrotation Yrotation Xrotation
							End Site
							{
								OFFSET 0.0 0.0 0.0
							}
						}
					}
				}
				JOINT LeftShoulder
				{
					OFFSET 4.32209 17.5503 0
					CHANNELS 3 Zrotation Yrotation Xrotation
					JOINT LeftArm
					{
						OFFSET 14.8714 0 0
						CHANNELS 3 Zrotation Yrotation Xrotation
						JOINT LeftForeArm
						{
							OFFSET 23.7007 0 0
							CHANNELS 3 Zrotation Yrotation Xrotation
							JOINT LeftHand
							{
								OFFSET 19.1112 0 0
								CHANNELS 3 Zrotation Yrotation Xrotation
								JOINT LeftHandPalm
								{
									OFFSET 0 0 0
									CHANNELS 3 Zrotation Yrotation Xrotation
									JOINT FZLeftThumb1
									{
										OFFSET -0.59711 -1.83115 3.06628
										CHANNELS 3 Zrotation Yrotation Xrotation
										JOINT FZLeftThumb2
										{
											OFFSET 1.29678 -1.36788 1.83268
											CHANNELS 3 Zrotation Yrotation Xrotation
											JOINT FZLeftThumb3
											{
												OFFSET 1.93031 -2.00253 2.64919
												CHANNELS 3 Zrotation Yrotation Xrotation
												End Site
												{
													OFFSET 0.0 0.0 0.0
												}
											}
										}
									}
									JOINT FZLeftIndex1
									{
										OFFSET 6.11343 -1.1628 2.75002
										CHANNELS 3 Zrotation Yrotation Xrotation
										JOINT FZLeftIndex2
										{
											OFFSET 3.88139 -0.928421 1.01818
											CHANNELS 3 Zrotation Yrotation Xrotation
											JOINT FZLeftIndex3
											{
												OFFSET 1.49382 -0.458603 0.322774
												CHANNELS 3 Zrotation Yrotation Xrotation
												End Site
												{
													OFFSET 0.0 0.0 0.0
												}
											}
										}
									}
									JOINT FZLeftMiddle1
									{
										OFFSET 6.12023 -1.14722 0.290579
										CHANNELS 3 Zrotation Yrotation Xrotation
										JOINT FZLeftMiddle2
										{
											OFFSET 4.24735 -1.08437 0.104351
											CHANNELS 3 Zrotation Yrotation Xrotation
											JOINT FZLeftMiddle3
											{
												OFFSET 2.04489 -0.741196 0.00429702
												CHANNELS 3 Zrotation Yrotation Xrotation
												End Site
												{
													OFFSET 0.0 0.0 0.0
												}
											}
										}
									}
									JOINT FZLeftRing1
									{
										OFFSET 5.77174 -1.28551 -1.90363
										CHANNELS 3 Zrotation Yrotation Xrotation
										JOINT FZLeftRing2
										{
											OFFSET 3.29582 -0.998688 -0.9005
											CHANNELS 3 Zrotation Yrotation Xrotation
											JOINT FZLeftRing3
											{
												OFFSET 2.49246 -0.971542 -0.650992
												CHANNELS 3 Zrotation Yrotation Xrotation
												End Site
												{
													OFFSET 0.0 0.0 0.0
												}
											}
										}
									}
									JOINT FZLeftPinky1
									{
										OFFSET 4.89582 -1.51128 -3.95336
										CHANNELS 3 Zrotation Yrotation Xrotation
										JOINT FZLeftPinky2
										{
											OFFSET 2.15219 -0.837952 -1.2451
											CHANNELS 3 Zrotation Yrotation Xrotation
											JOINT FZLeftPinky3
											{
												OFFSET 1.41002 -0.66391 -0.765082
												CHANNELS 3 Zrotation Yrotation Xrotation
												End Site
												{
													OFFSET 0.0 0.0 0.0
												}
											}
										}
									}
								}
							}
						}
					}
				}
				JOINT RightShoulder
				{
					OFFSET -4.32209 17.5509 0
					CHANNELS 3 Zrotation Yrotation Xrotation
					JOINT RightArm
					{
						OFFSET -14.8714 0 0
						CHANNELS 3 Zrotation Yrotation Xrotation
						JOINT RightForeArm
						{
							OFFSET -23.7008 0 0
							CHANNELS 3 Zrotation Yrotation Xrotation
							JOINT RightHand
							{
								OFFSET -19.1112 0.00035344 0
								CHANNELS 3 Zrotation Yrotation Xrotation
								JOINT RightHandPalm
								{
									OFFSET 0 0 0
									CHANNELS 3 Zrotation Yrotation Xrotation
									JOINT FZRightThumb1
									{
										OFFSET 0.597107 -1.83099 3.06628
										CHANNELS 3 Zrotation Yrotation Xrotation
										JOINT FZRightThumb2
										{
											OFFSET -1.29681 -1.36801 1.83268
											CHANNELS 3 Zrotation Yrotation Xrotation
											JOINT FZRightThumb3
											{
												OFFSET -1.9303 -2.002 2.64919
												CHANNELS 3 Zrotation Yrotation Xrotation
												End Site
												{
													OFFSET 0.0 0.0 0.0
												}
											}
										}
									}
									JOINT FZRightIndex1
									{
										OFFSET -6.1134 -1.162 2.75002
										CHANNELS 3 Zrotation Yrotation Xrotation
										JOINT FZRightIndex2
										{
											OFFSET -3.8814 -0.929001 1.01818
											CHANNELS 3 Zrotation Yrotation Xrotation
											JOINT FZRightIndex3
											{
												OFFSET -1.4938 -0.457993 0.322774
												CHANNELS 3 Zrotation Yrotation Xrotation
												End Site
												{
													OFFSET 0.0 0.0 0.0
												}
											}
										}
									}
									JOINT FZRightMiddle1
									{
										OFFSET -6.12019 -1.147 0.29058
										CHANNELS 3 Zrotation Yrotation Xrotation
										JOINT FZRightMiddle2
										{
											OFFSET -4.24741 -1.084 0.10435
											CHANNELS 3 Zrotation Yrotation Xrotation
											JOINT FZRightMiddle3
											{
												OFFSET -2.0449 -0.740997 0.00430012
												CHANNELS 3 Zrotation Yrotation Xrotation
												End Site
												{
													OFFSET 0.0 0.0 0.0
												}
											}
										}
									}
									JOINT FZRightRing1
									{
										OFFSET -5.7717 -1.285 -1.90363
										CHANNELS 3 Zrotation Yrotation Xrotation
										JOINT FZRightRing2
										{
											OFFSET -3.2959 -0.998993 -0.9005
											CHANNELS 3 Zrotation Yrotation Xrotation
											JOINT FZRightRing3
											{
												OFFSET -2.4924 -0.971008 -0.65099
												CHANNELS 3 Zrotation Yrotation Xrotation
												End Site
												{
													OFFSET 0.0 0.0 0.0
												}
											}
										}
									}
									JOINT FZRightPinky1
									{
										OFFSET -4.8958 -1.511 -3.95337
										CHANNELS 3 Zrotation Yrotation Xrotation
										JOINT FZRightPinky2
										{
											OFFSET -2.1522 -0.837997 -1.24509
											CHANNELS 3 Zrotation Yrotation Xrotation
											JOINT FZRightPinky3
											{
												OFFSET -1.41 -0.664002 -0.76508
												CHANNELS 3 Zrotation Yrotation Xrotation
												End Site
												{
													OFFSET 0.0 0.0 0.0
												}
											}
										}
									}
								}
							}
						}
					}
				}
			}
		}
	}
}
MOTION
Frames: 4
Frame Time: 0.00833333
-497.620819 908.019958 338.912598 -3.756194 2.923068 -7.427383 3.969672 -5.235190 -3.674617 -0.977133 -0.619208 42.361580 -0.780522 5.427137 -45.258528 -2.699206 -1.889515 6.001822 0.000001 -0.000000 7.798518 -2.971735 -10.643459 2.534792 5.615498 3.352177 51.813890 12.685217 -3.841057 -59.736190 -2.217831 16.898144 11.392283 0.000001 0.000007 1.819783 6.488916 -3.313105 9.533611 -1.998380 3.328086 6.841637 -2.840965 -0.657024 -5.231963 2.612749 -1.695829 -10.494474 -0.507843 -0.588903 -3.043319 -0.569503 -1.078152 9.517054 -10.417845 -4.137233 9.477220 -30.883460 -16.287453 -9.969671 41.213726 -33.095009 0.462145 46.491038 23.703236 4.100655 -33.492498 18.770437 21.563311 0.000000 0.000000 0.000000 0.000000 0.000000 0.000000 0.000000 0.000000 0.000000 0.000000 0.000000 0.000000 0.000000 0.000000 0.000000 0.000000 0.000000 0.000000 0.000000 0.000000 0.000000 0.000000 0.000000 0.000000 0.000000 0.000000 0.000000 0.000000 0.000000 0.000000 0.000000 0.000000 0.000000 0.000000 0.000000 0.000000 0.000000 0.000000 0.000000 0.000000 0.000000 0.000000 0.000000 0.000000 0.000000 15.277183 5.334578 19.961136 -7.475894 57.585215 0.737187 -15.910145 -46.438889 -16.698758 0.924028 -7.139059 9.969477 -0.989023 -17.651090 -2.795906 0.000000 0.000000 0.000000 0.000000 0.000000 0.000000 0.000000 0.000000 0.000000 0.000000 0.000000 0.000000 0.000000 0.000000 0.000000 0.000000 0.000000 0.000000 0.000000 0.000000 0.000000 0.000000 0.000000 0.000000 0.000000 0.000000 0.000000 0.000000 0.000000 0.000000 0.000000 0.000000 0.000000 0.000000 0.000000 0.000000 0.000000 0.000000 0.000000 0.000000 0.000000 0.000000 0.000000 0.000000 0.000000
-551.758545 902.200317 415.023468 -0.430380 -13.263312 -6.884909 2.850162 6.700006 3.617083 -0.830961 11.782074 35.755345 -6.924566 5.355198 -53.912968 -2.277571 -13.798444 13.803461 0.000002 0.000002 8.129635 -13.231756 14.363014 -9.204396 12.181009 -13.827139 16.883351 4.532330 4.547877 -6.608904 -4.507427 6.986565 2.175607 -0.000004 -0.000007 0.601018 0.297827 12.350556 9.718577 -0.940567 -3.766481 4.853286 4.397404 2.318551 -5.481037 2.032978 11.736534 -4.392974 -3.523890 12.048391 -2.009067 -2.071185 -20.458193 5.642520 -8.193185 -4.724544 7.531630 -21.629280 -40.829766 2.585765 20.156865 -40.252784 33.911065 23.977073 71.520619 12.160115 -28.299312 17.298612 2.972346 0.000000 0.000000 0.000000 0.000000 0.000000 0.000000 0.000000 0.000000 0.000000 0.000000 0.000000 0.000000 0.000000 0.000000 0.000000 0.000000 0.000000 0.000000 0.000000 0.000000 0.000000 0.000000 0.000000 0.000000 0.000000 0.000000 0.000000 0.000000 0.000000 0.000000 0.000000 0.000000 0.000000 0.000000 0.000000 0.000000 0.000000 0.000000 0.000000 0.000000 0.000000 0.000000 0.000000 0.000000 0.000000 7.223749 2.333493 12.249188 -4.351652 20.963073 -48.554524 7.885155 24.458063 20.881226 -40.806400 -10.858631 38.661658 33.803812 -13.202765 -5.185824 0.000000 0.000000 0.000000 0.000000 0.000000 0.000000 0.000000 0.000000 0.000000 0.000000 0.000000 0.000000 0.000000 0.000000 0.000000 0.000000 0.000000 0.000000 0.000000 0.000000 0.000000 0.000000 0.000000 0.000000 0.000000 0.000000 0.000000 0.000000 0.000000 0.000000 0.000000 0.000000 0.000000 0.000000 0.000000 0.000000 0.000000 0.000000 0.000000 0.000000 0.000000 0.000000 0.000000 0.000000 0.000000
-573.607605 884.758972 430.635101 1.779084 -15.183496 -7.087255 0.257700 11.683917 2.325905 -0.029656 7.073309 41.592694 -10.478143 5.510102 -63.105143 -1.675901 -14.969185 17.841713 -0.000001 0.000003 8.130865 -16.269634 17.571077 -11.864788 13.253186 -12.471033 19.846232 2.851564 -0.478297 -7.296431 -2.609952 8.743705 -0.578307 0.000002 -0.000003 1.726843 -2.946003 14.671922 8.993550 -1.828696 -5.158698 5.405571 7.816223 3.162438 -6.202618 1.781180 13.654947 -3.670944 -4.541264 13.642835 -2.308839 -2.350225 -22.947878 6.285471 -7.940182 -5.218328 6.254943 -16.376195 -40.812344 -6.025428 5.466333 -48.618433 47.058280 49.091233 80.417080 40.827437 -32.296403 15.824053 3.936893 0.000000 0.000000 0.000000 0.000000 0.000000 0.000000 0.000000 0.000000 0.000000 0.000000 0.000000 0.000000 0.000000 0.000000 0.000000 0.000000 0.000000 0.000000 0.000000 0.000000 0.000000 0.000000 0.000000 0.000000 0.000000 0.000000 0.000000 0.000000 0.000000 0.000000 0.000000 0.000000 0.000000 0.000000 0.000000 0.000000 0.000000 0.000000 0.000000 0.000000 0.000000 0.000000 0.000000 0.000000 0.000000 5.289014 3.196216 8.215250 -3.672851 14.604449 -54.451697 38.622940 35.735199 57.534296 -60.546361 -32.329096 44.181883 42.372453 -11.732739 2.914585 0.000000 0.000000 0.000000 0.000000 0.000000 0.000000 0.000000 0.000000 0.000000 0.000000 0.000000 0.000000 0.000000 0.000000 0.000000 0.000000 0.000000 0.000000 0.000000 0.000000 0.000000 0.000000 0.000000 0.000000 0.000000 0.000000 0.000000 0.000000 0.000000 0.000000 0.000000 0.000000 0.000000 0.000000 0.000000 0.000000 0.000000 0.000000 0.000000 0.000000 0.000000 0.000000 0.000000 0.000000 0.000000
-599.260376 883.800903 447.884644 1.420581 -16.584127 -5.354086 1.978246 14.170935 1.504801 -1.719627 4.242386 40.689904 -13.455801 6.533562 -63.584956 -0.575075 -16.557123 18.165817 0.000002 0.000002 8.272853 -14.457138 17.927912 -14.992199 11.313855 -11.447261 22.406931 2.036774 0.448625 -3.641774 -2.474169 7.091502 -5.534803 0.000003 -0.000004 2.335718 -2.512620 15.760359 6.553432 -2.024459 -5.692267 5.089286 7.899222 2.977966 -5.494005 1.803132 14.592754 -2.622056 -4.694677 14.862841 -2.817995 -2.631903 -24.407075 6.417749 -8.869340 -4.972812 6.750674 -11.720522 -41.234877 -11.734860 -5.119605 -53.125687 59.854284 96.382609 86.165427 93.006538 -34.296057 13.959025 3.089227 0.000000 0.000000 0.000000 0.000000 0.000000 0.000000 0.000000 0.000000 0.000000 0.000000 0.000000 0.000000 0.000000 0.000000 0.000000 0.000000 0.000000 0.000000 0.000000 0.000000 0.000000 0.000000 0.000000 0.000000 0.000000 0.000000 0.000000 0.000000 0.000000 0.000000 0.000000 0.000000 0.000000 0.000000 0.000000 0.000000 0.000000 0.000000 0.000000 0.000000 0.000000 0.000000 0.000000 0.000000 0.000000 4.103719 2.883088 6.674505 -1.367740 12.743680 -59.301221 64.993818 36.554068 92.631439 -84.163936 -51.077870 65.085011 48.017207 -8.708484 10.785819 0.000000 0.000000 0.000000 0.000000 0.000000 0.000000 0.000000 0.000000 0.000000 0.000000 0.000000 0.000000 0.000000 0.000000 0.000000 0.000000 0.000000 0.000000 0.000000 0.000000 0.000000 0.000000 0.000000 0.000000 0.000000 0.000000 0.000000 0.000000 0.000000 0.000000 0.000000 0.000000 0.000000 0.000000 0.000000 0.000000 0.000000 0.000000 0.000000 0.000000 0.000000 0.000000 0.000000 0.000000 0.000000
